<svg width="70" height="70" viewBox="0 0 70 70" fill="none" xmlns="http://www.w3.org/2000/svg">
<path d="M50.0499 56.9433C49.4836 56.9433 49.0245 57.4024 49.0245 57.9687V64.4441H2.05078V8.4032H12.7148C13.2811 8.4032 13.7402 7.9441 13.7402 7.37781C13.7402 6.81152 13.2811 6.35242 12.7148 6.35242H1.70898C0.766582 6.35242 0 7.119 0 8.0614V64.7859C0 65.7283 0.766582 66.4949 1.70898 66.4949H49.3663C50.3087 66.4949 51.0753 65.7283 51.0753 64.7859V57.9687C51.0753 57.4024 50.6162 56.9433 50.0499 56.9433Z" fill="#D13A52"/>
<path d="M67.6074 3.505H33.4582C32.139 3.505 31.0656 4.57838 31.0656 5.89758V6.35245H17.5C16.9337 6.35245 16.4746 6.81155 16.4746 7.37784C16.4746 7.94413 16.9337 8.40323 17.5 8.40323H31.0656V13.6739C31.0656 14.6163 31.8322 15.3829 32.7746 15.3829H35.6191C36.5615 15.3829 37.328 14.6163 37.328 13.6739V11.6817H46.4445V39.7505H44.1332C43.1908 39.7505 42.4242 40.5171 42.4242 41.4595V44.3039C42.4242 45.2463 43.1908 46.0129 44.1332 46.0129H49.0245V53.1835C49.0245 53.7498 49.4836 54.2089 50.0499 54.2089C50.6162 54.2089 51.0753 53.7498 51.0753 53.1835V46.0129H56.9324C57.8748 46.0129 58.6414 45.2463 58.6414 44.3039V41.4595C58.6414 40.5171 57.8748 39.7505 56.9324 39.7505H54.6212V28.8476C54.6212 28.2813 54.1621 27.8222 53.5958 27.8222C53.0295 27.8222 52.5704 28.2813 52.5704 28.8476V40.0923C52.5704 41.0347 53.337 41.8013 54.2794 41.8013H56.5906V43.9621H44.475V41.8013H46.7863C47.7287 41.8013 48.4952 41.0347 48.4952 40.0923V11.3399C48.4952 10.3975 47.7287 9.63096 46.7863 9.63096H36.9863C36.0438 9.63096 35.2773 10.3975 35.2773 11.3399V13.3321H33.1164V5.89758C33.1164 5.70919 33.2698 5.55579 33.4582 5.55579H67.6074C67.7958 5.55579 67.9492 5.70919 67.9492 5.89758V13.3321H65.7884V11.3399C65.7884 10.3975 65.0218 9.63096 64.0794 9.63096H54.2794C53.337 9.63096 52.5704 10.3975 52.5704 11.3399V24.0624C52.5704 24.6287 53.0295 25.0878 53.5958 25.0878C54.1621 25.0878 54.6212 24.6287 54.6212 24.0624V11.6817H63.7376V13.6739C63.7376 14.6163 64.5042 15.3829 65.4466 15.3829H68.291C69.2334 15.3829 70 14.6163 70 13.6739V5.89758C70 4.57825 68.9266 3.505 67.6074 3.505Z" fill="#D13A52"/>
<path d="M10.1908 17.4128C9.85391 17.4128 9.53836 17.5784 9.34695 17.8557L6.53943 21.9224C6.2176 22.3884 6.33463 23.0271 6.8007 23.3488C6.97858 23.4715 7.18147 23.5305 7.38231 23.5305C7.70783 23.5305 8.02816 23.3758 8.22709 23.0876L9.16539 21.7285V51.1191L8.22709 49.7599C7.90553 49.294 7.26691 49.177 6.8007 49.4987C6.33463 49.8204 6.21774 50.459 6.53943 50.9251L9.34695 54.9918C9.53836 55.269 9.85391 55.4346 10.1908 55.4346C10.5277 55.4346 10.8432 55.269 11.0346 54.9918L13.8423 50.9251C14.1641 50.459 14.0471 49.8204 13.581 49.4987C13.1149 49.1768 12.4762 49.2939 12.1546 49.7599L11.2162 51.1192V21.7284L12.1546 23.0876C12.4764 23.5536 13.1148 23.6706 13.581 23.3489C14.0471 23.0272 14.164 22.3886 13.8423 21.9225L11.0346 17.8558C10.8432 17.5784 10.5278 17.4128 10.1908 17.4128Z" fill="#D13A52"/>
<path d="M16.9529 53.6465H30.9062C31.4725 53.6465 31.9316 53.1874 31.9316 52.6211C31.9316 52.0548 31.4725 51.5957 30.9062 51.5957H16.9529C16.3866 51.5957 15.9275 52.0548 15.9275 52.6211C15.9275 53.1874 16.3866 53.6465 16.9529 53.6465Z" fill="#D13A52"/>
<path d="M16.9529 47.1675H38.9561C39.5224 47.1675 39.9815 46.7084 39.9815 46.1421C39.9815 45.5758 39.5224 45.1167 38.9561 45.1167H16.9529C16.3866 45.1167 15.9275 45.5758 15.9275 46.1421C15.9275 46.7084 16.3866 47.1675 16.9529 47.1675Z" fill="#D13A52"/>
<path d="M16.9529 40.6886H38.9561C39.5224 40.6886 39.9815 40.2295 39.9815 39.6632C39.9815 39.0969 39.5224 38.6378 38.9561 38.6378H16.9529C16.3866 38.6378 15.9275 39.0969 15.9275 39.6632C15.9275 40.2295 16.3866 40.6886 16.9529 40.6886Z" fill="#D13A52"/>
<path d="M16.9529 27.7307H38.9561C39.5224 27.7307 39.9815 27.2716 39.9815 26.7053C39.9815 26.139 39.5224 25.6799 38.9561 25.6799H16.9529C16.3866 25.6799 15.9275 26.139 15.9275 26.7053C15.9275 27.2716 16.3866 27.7307 16.9529 27.7307Z" fill="#D13A52"/>
<path d="M16.9529 21.2518H38.9561C39.5224 21.2518 39.9815 20.7927 39.9815 20.2264C39.9815 19.6602 39.5224 19.201 38.9561 19.201H16.9529C16.3866 19.201 15.9275 19.6602 15.9275 20.2264C15.9275 20.7927 16.3866 21.2518 16.9529 21.2518Z" fill="#D13A52"/>
<path d="M16.9529 34.2096H38.9561C39.5224 34.2096 39.9815 33.7505 39.9815 33.1842C39.9815 32.6179 39.5224 32.1588 38.9561 32.1588H16.9529C16.3866 32.1588 15.9275 32.6179 15.9275 33.1842C15.9275 33.7505 16.3866 34.2096 16.9529 34.2096Z" fill="#D13A52"/>
</svg>
