<svg width="70" height="70" viewBox="0 0 70 70" fill="none" xmlns="http://www.w3.org/2000/svg">
<path d="M66.5 5.83337H3.5C1.51644 5.83337 0 7.34981 0 9.33337V60.6667C0 62.6503 1.51644 64.1667 3.5 64.1667H66.5C68.4836 64.1667 70 62.6503 70 60.6667V9.33337C70 7.34981 68.4836 5.83337 66.5 5.83337ZM3.5 8.16671H66.5C67.2001 8.16671 67.6667 8.63326 67.6667 9.33337V15.1667H2V9.33337C2 8.63326 2.79989 8.16671 3.5 8.16671ZM66.5 62H35H3.5C2.79989 62 2 61.3668 2 60.6667V39V17H35H68V38.7979V60.6667C68 61.3668 67.2001 62 66.5 62Z" fill="#D13A52"/>
<path d="M4.66669 10.5H7.00002V12.8333H4.66669V10.5Z" fill="#D13A52"/>
<path d="M9.33334 10.5H11.6667V12.8333H9.33334V10.5Z" fill="#D13A52"/>
<path d="M14 10.5H16.3333V12.8333H14V10.5Z" fill="#D13A52"/>
<path d="M19.8333 10.5H65.3333V12.8333H19.8333V10.5Z" fill="#D13A52"/>
<path d="M49 59.5H65.3333V19.8334H49V59.5ZM51.3333 22.1667H63V57.1667H51.3333V22.1667Z" fill="#D13A52"/>
<path d="M53.6667 54.8333H60.6667V49H53.6667V54.8333ZM56 51.3333H58.3333V52.5H56V51.3333Z" fill="#D13A52"/>
<path d="M4.3327 59H24.8327H45.9997V41H4.33283L4.3327 59ZM5.99969 43.1667H43.9997V57.1667H5.99969V43.1667Z" fill="#D13A52"/>
<path d="M25.6667 53.6666H42V46.6666H25.6667V53.6666ZM28 49H39.6667V51.3333H28V49Z" fill="#D13A52"/>
<path d="M9.33334 46.6666H23.3333V49H9.33334V46.6666Z" fill="#D13A52"/>
<path d="M9.33334 51.3334H23.3333V53.6667H9.33334V51.3334Z" fill="#D13A52"/>
<path d="M53.6667 28H60.6667V30.3333H53.6667V28Z" fill="#D13A52"/>
<path d="M53.6667 32.6666H60.6667V35H53.6667V32.6666Z" fill="#D13A52"/>
<path d="M5.83331 19.8334H12.8333V22.1667H5.83331V19.8334Z" fill="#D13A52"/>
<path d="M5.83331 24.5H15.1666V26.8333H5.83331V24.5Z" fill="#D13A52"/>
<path d="M17.5 24.5H46.6667V26.8333H17.5V24.5Z" fill="#D13A52"/>
<path d="M5.83331 29.1666H30.3333V31.5H5.83331V29.1666Z" fill="#D13A52"/>
<path d="M32.6667 29.1666H46.6667V31.5H32.6667V29.1666Z" fill="#D13A52"/>
<path d="M5.83331 33.8334H18.6666V36.1667H5.83331V33.8334Z" fill="#D13A52"/>
<path d="M21 33.8334H35V36.1667H21V33.8334Z" fill="#D13A52"/>
<path d="M37.3333 33.8334H46.6667V36.1667H37.3333V33.8334Z" fill="#D13A52"/>
</svg>
