<svg width="60" height="60" viewBox="0 0 60 60" fill="none" xmlns="http://www.w3.org/2000/svg">
<g clip-path="url(#clip0)">
<path d="M7.10711 59.4161C7.5612 59.8693 8.20572 60.0771 8.83971 59.9741C9.47324 59.8715 10.0189 59.4706 10.3068 58.897L12.3736 54.7612L22.0606 49.4933L22.7165 50.711C23.2187 51.6494 24.0765 52.347 25.0973 52.6473C26.1135 52.9553 27.2103 52.8436 28.1437 52.3374L35.1871 48.543C37.128 47.4934 37.8549 45.0723 36.8131 43.1273L36.1255 41.8484L51.2342 33.6317C51.788 33.33 52.1671 32.7848 52.2572 32.1609C52.3474 31.5366 52.1378 30.9067 51.6919 30.4608L29.5394 8.31193C29.0935 7.86654 28.4636 7.65734 27.8397 7.74752C27.2158 7.8377 26.6711 8.21672 26.3694 8.77015L5.23901 47.622L1.1032 49.6902C0.529179 49.9781 0.128644 50.5237 0.0256491 51.1577C-0.0768879 51.7913 0.130475 52.4358 0.584109 52.8903L7.10711 59.4161ZM35.0475 44.0744C35.5703 45.0467 35.2064 46.2589 34.2345 46.7821L27.1915 50.5823C26.7242 50.8341 26.1762 50.8895 25.6681 50.7371C25.16 50.5846 24.7329 50.2367 24.4816 49.7694L23.8215 48.5421L34.3645 42.8023L35.0475 44.0744ZM28.1254 9.72594L50.277 31.8725L48.4441 32.8727L27.1293 11.5579L28.1254 9.72594ZM26.1337 13.3898L46.6113 33.8674L34.3224 40.5502C34.3124 40.5502 34.3023 40.5502 34.2931 40.5593C34.2844 40.5685 34.2785 40.5735 34.2693 40.5795L11.7977 52.802L7.19774 48.202L26.1337 13.3898ZM5.76909 49.5931L10.4071 54.2311L8.52065 58.0021L1.99811 51.4791L5.76909 49.5931Z" fill="#D13A52"/>
<path d="M32.5193 8.31417C32.7711 8.3984 33.0457 8.37917 33.2833 8.26061C33.5209 8.14205 33.7012 7.93378 33.7854 7.68201L35.9062 1.31694C36.0193 0.977741 35.9424 0.603756 35.7048 0.336427C35.4672 0.0690987 35.1051 -0.0512907 34.755 0.0205767C34.4048 0.0924441 34.1191 0.345582 34.0061 0.685236L31.8871 7.04894C31.7127 7.57307 31.9956 8.13931 32.5193 8.31417Z" fill="#D13A52"/>
<path d="M51.6861 27.4808C51.861 28.0045 52.4272 28.2874 52.9509 28.1125L59.315 25.9908C59.6542 25.8778 59.9078 25.5926 59.9797 25.242C60.0516 24.8918 59.9312 24.5297 59.6638 24.2921C59.3961 24.0545 59.0225 23.9776 58.6829 24.0907L52.3183 26.2115C52.0656 26.2957 51.8568 26.4765 51.7383 26.715C51.6197 26.953 51.601 27.2286 51.6861 27.4808Z" fill="#D13A52"/>
<path d="M44.1494 16.8499C44.4149 16.8504 44.6694 16.7451 44.8566 16.557L49.8063 11.6068C50.0833 11.3605 50.2009 10.9811 50.1121 10.6213C50.0233 10.2615 49.7427 9.97994 49.3833 9.89022C49.0235 9.8005 48.6441 9.91723 48.3964 10.1928L43.4467 15.143C43.1606 15.4291 43.075 15.8589 43.2297 16.2324C43.3845 16.6059 43.7493 16.8499 44.1535 16.8499H44.1494Z" fill="#D13A52"/>
<path d="M38.0077 12.482C38.2393 12.6106 38.513 12.6422 38.768 12.5694C39.023 12.4967 39.2386 12.3259 39.3677 12.0938L42.9024 5.73013C43.1707 5.2472 42.9972 4.63839 42.5147 4.37014C42.0318 4.10144 41.423 4.27539 41.1547 4.75786L37.6195 11.122C37.4909 11.3536 37.4593 11.6274 37.5321 11.8823C37.6048 12.1373 37.7756 12.3529 38.0077 12.482Z" fill="#D13A52"/>
<path d="M47.5186 21.9928C47.6472 22.2244 47.8632 22.3956 48.1182 22.4684C48.3732 22.5412 48.6469 22.5096 48.8785 22.3805L55.2422 18.8458C55.7252 18.5775 55.8987 17.9687 55.6304 17.4858C55.3617 17.0033 54.7529 16.8293 54.2704 17.098L47.9067 20.6328C47.6746 20.7615 47.5034 20.9775 47.4307 21.2325C47.3579 21.4875 47.3895 21.7612 47.5186 21.9928Z" fill="#D13A52"/>
<path d="M18.221 33.7026C18.3666 33.7813 18.5291 33.8225 18.6943 33.8225C19.0624 33.8225 19.4007 33.6207 19.5751 33.2966L24.5252 24.1049C24.6946 23.7899 24.6836 23.4091 24.4959 23.1051C24.3082 22.8007 23.9727 22.6199 23.6152 22.6304C23.2581 22.641 22.9336 22.841 22.7642 23.1555L17.8141 32.3486C17.5527 32.8347 17.7349 33.4408 18.221 33.7026Z" fill="#D13A52"/>
<path d="M24.6112 21.6949C24.8483 21.8134 25.1229 21.8331 25.3747 21.7493C25.6265 21.6656 25.8343 21.4852 25.9528 21.2476L27.3678 18.4187C27.615 17.9248 27.4149 17.3242 26.921 17.077C26.4271 16.8298 25.826 17.0299 25.5789 17.5238L24.1639 20.3527C24.0454 20.5898 24.0257 20.8649 24.1095 21.1162C24.1932 21.368 24.3736 21.5763 24.6112 21.6949Z" fill="#D13A52"/>
</g>
<defs>
<clipPath id="clip0">
<rect width="60" height="60" fill="white"/>
</clipPath>
</defs>
</svg>
