<svg width="70" height="70" viewBox="0 0 70 70" fill="none" xmlns="http://www.w3.org/2000/svg">
<g clip-path="url(#clip0)">
<path d="M48.4905 24.7206H45.385C45.1954 24.1187 44.9542 23.536 44.6632 22.977L46.8589 20.7812C47.1333 20.5068 47.2843 20.1419 47.2843 19.7537C47.2843 19.3654 47.1333 19.0005 46.8589 18.7261L44.2747 16.1419C43.7082 15.5757 42.7864 15.5755 42.2197 16.142L40.0239 18.3379C39.4648 18.0468 38.882 17.8055 38.2803 17.616V14.5104C38.2802 13.7093 37.6283 13.0573 36.827 13.0573H33.1724C32.3712 13.0573 31.7193 13.7091 31.7193 14.5104V17.616C31.1175 17.8056 30.5348 18.0468 29.9756 18.3379L27.7797 16.1419C27.2131 15.5756 26.2913 15.5757 25.7248 16.142L23.1408 18.726C22.8663 19.0004 22.7151 19.3653 22.7151 19.7536C22.7151 20.1417 22.8663 20.5066 23.1407 20.781L25.3365 22.9769C25.0454 23.5359 24.8041 24.1187 24.6146 24.7204H21.5091C20.7079 24.7204 20.056 25.3723 20.056 26.1736V29.8282C20.056 30.6294 20.7079 31.2813 21.5091 31.2813H24.6146C24.8043 31.883 25.0454 32.4659 25.3365 33.0249L23.1407 35.2207C22.5741 35.7872 22.5741 36.7091 23.1407 37.2757L25.7248 39.8598C26.2913 40.4265 27.2134 40.4264 27.7798 39.8598L29.9756 37.664C30.5347 37.9551 31.1176 38.1964 31.7193 38.3859V41.4914C31.7193 42.2926 32.3712 42.9445 33.1724 42.9445H36.827C37.6282 42.9445 38.2802 42.2926 38.2802 41.4914V38.3859C38.8817 38.1964 39.4647 37.9551 40.0238 37.664L42.2196 39.8598C42.7863 40.4265 43.7082 40.4264 44.2747 39.8598L46.8587 37.2757C47.1331 37.0013 47.2842 36.6364 47.2842 36.2483C47.2842 35.8601 47.1331 35.4952 46.8587 35.2207L44.6629 33.0249C44.954 32.4658 45.1953 31.883 45.3848 31.2813H48.4903C49.2915 31.2813 49.9435 30.6294 49.9435 29.8282V26.1736C49.9436 25.3724 49.2916 24.7206 48.4905 24.7206ZM47.893 29.2305H44.6037C44.1274 29.2305 43.7138 29.5585 43.6052 30.0224C43.3866 30.9568 43.0197 31.8432 42.5145 32.6565C42.2631 33.0612 42.3236 33.5857 42.6604 33.9227L44.9861 36.2484L43.2473 37.9872L40.9216 35.6615C40.5847 35.3246 40.0603 35.2639 39.6553 35.5154C38.8418 36.0206 37.9555 36.3876 37.0213 36.6063C36.5574 36.7147 36.2294 37.1283 36.2294 37.6048V40.8942H33.7705V37.6048C33.7705 37.1285 33.4425 36.7149 32.9787 36.6063C32.0445 36.3878 31.1581 36.0209 30.3445 35.5154C29.94 35.2644 29.4154 35.3246 29.0784 35.6615L26.7526 37.9872L25.0139 36.2484L27.3396 33.9227C27.6764 33.5858 27.7369 33.0614 27.4856 32.6565C26.9804 31.8431 26.6135 30.9567 26.3948 30.0224C26.2864 29.5585 25.8727 29.2305 25.3964 29.2305H22.1071V26.7716H25.3964C25.8727 26.7716 26.2863 26.4436 26.3948 25.9797C26.6135 25.0454 26.9804 24.1591 27.4856 23.3456C27.7369 22.9409 27.6764 22.4165 27.3396 22.0794L25.0139 19.7537L26.7526 18.0149L29.0784 20.3407C29.415 20.6775 29.9397 20.7381 30.3445 20.4867C31.1578 19.9815 32.0442 19.6145 32.9787 19.3959C33.4425 19.2875 33.7705 18.8739 33.7705 18.3975V15.108H36.2294V18.3975C36.2294 18.8738 36.5574 19.2874 37.0213 19.3959C37.9556 19.6145 38.8418 19.9815 39.6554 20.4867C40.0599 20.7378 40.5846 20.6773 40.9216 20.3407L43.2473 18.0149L44.9861 19.7537L42.6604 22.0794C42.3235 22.4163 42.2631 22.9408 42.5145 23.3456C43.0195 24.1588 43.3865 25.0451 43.6052 25.9797C43.7138 26.4436 44.1272 26.7716 44.6037 26.7716H47.893V29.2305Z" fill="#D13A52"/>
<path d="M34.9996 22.5077C31.9705 22.5077 29.5063 24.972 29.5063 28.001C29.5063 31.03 31.9706 33.4944 34.9996 33.4944C38.0286 33.4944 40.493 31.03 40.493 28.001C40.493 24.972 38.0288 22.5077 34.9996 22.5077ZM34.9996 31.4436C33.1014 31.4436 31.5571 29.8992 31.5571 28.001C31.5571 26.1028 33.1014 24.5585 34.9996 24.5585C36.8978 24.5585 38.4422 26.1028 38.4422 28.001C38.4422 29.8992 36.8978 31.4436 34.9996 31.4436Z" fill="#D13A52"/>
<path d="M55.4565 25.4891C54.353 16.0727 46.8886 8.60755 37.5163 7.46514C36.9551 7.39609 36.4428 7.79681 36.3741 8.35886C36.3057 8.92105 36.7058 9.43238 37.268 9.50101C45.7797 10.5384 52.4215 17.2112 53.4194 25.7279C53.4805 26.2497 53.9236 26.6339 54.4364 26.6339C54.4764 26.6339 54.5166 26.6316 54.5572 26.6269C55.1199 26.5612 55.5224 26.0517 55.4565 25.4891Z" fill="#D13A52"/>
<path d="M54.5455 29.3765C53.9828 29.3048 53.4705 29.7031 53.3994 30.265C52.7004 35.7868 49.5837 40.659 44.8486 43.632C42.8073 44.9137 41.5887 47.1072 41.5887 49.4995V53.7196H28.4114V49.4062C28.4114 47.0896 27.2007 44.901 25.2521 43.6947C19.7415 40.2836 16.4515 34.3833 16.4514 27.9111C16.4514 18.5661 23.4511 10.6521 32.7333 9.50226C33.2954 9.43267 33.6945 8.92052 33.6249 8.35847C33.5553 7.79656 33.0434 7.39638 32.4811 7.46693C22.2252 8.73745 14.4001 17.5572 14.4002 27.9111C14.4002 31.484 15.3295 35.0042 17.0878 38.0913C18.7923 41.0841 21.2421 43.6246 24.1723 45.4385C25.5218 46.2738 26.3601 47.7941 26.3601 49.406V53.8689C25.3175 54.2312 24.5656 55.2213 24.5656 56.3858V57.8476C24.5656 58.4665 24.7795 59.0354 25.1345 59.4883C24.7793 59.9413 24.5656 60.51 24.5656 61.1291V62.5908C24.5656 64.0609 25.7618 65.2569 27.2318 65.2569H30.4556V67.575C30.4556 68.9122 31.5435 70.0001 32.8806 70.0001H37.1184C38.4557 70.0001 39.5434 68.9122 39.5434 67.575V65.2569H42.7672C44.2374 65.2569 45.4334 64.0607 45.4334 62.5908V61.1291C45.4334 60.5102 45.2196 59.9413 44.8644 59.4883C45.2196 59.0354 45.4334 58.4666 45.4334 57.8476V56.3858C45.4334 55.2212 44.6817 54.2312 43.639 53.8689V49.4994C43.639 47.8171 44.4985 46.273 45.9386 45.3689C51.1959 42.0679 54.6568 36.6566 55.4332 30.5226C55.505 29.9607 55.1073 29.4476 54.5455 29.3765ZM37.4929 67.5748C37.4929 67.7776 37.3216 67.949 37.1189 67.949H32.881C32.6782 67.949 32.5069 67.7777 32.5069 67.5748V65.2568H37.4929V67.5748ZM43.383 62.5906C43.383 62.9241 43.1012 63.2058 42.7678 63.2058C40.9576 63.2058 28.9404 63.2058 27.2322 63.2058C26.8987 63.2058 26.617 62.9241 26.617 62.5906V61.129C26.617 60.7955 26.8987 60.5137 27.2322 60.5137H42.7678C43.1012 60.5137 43.383 60.7955 43.383 61.129V62.5906ZM43.383 57.8474C43.383 58.1809 43.1012 58.4627 42.7678 58.4627H27.2322C26.8987 58.4627 26.617 58.1809 26.617 57.8474V56.3856C26.617 56.0522 26.8987 55.7704 27.2322 55.7704H42.7678C43.1012 55.7704 43.383 56.0522 43.383 56.3856V57.8474Z" fill="#D13A52"/>
</g>
<defs>
<clipPath id="clip0">
<rect width="70" height="70" fill="white"/>
</clipPath>
</defs>
</svg>
