<svg width="60" height="60" viewBox="0 0 60 60" fill="none" xmlns="http://www.w3.org/2000/svg">
<path d="M57.8846 0H2.26835C1.45603 0 0.811768 0.658263 0.811768 1.45658V10.2381C0.811768 11.0504 1.47003 11.6947 2.26835 11.6947H57.8846C58.6969 11.6947 59.3412 11.0364 59.3412 10.2381V1.45658C59.3412 0.644258 58.6829 0 57.8846 0ZM56.414 8.7535H3.72493V2.92717H56.414V8.7535Z" fill="#D13A52"/>
<path d="M57.8848 16.1064H44.7196C43.9073 16.1064 43.263 16.7647 43.263 17.563V26.3445C43.263 27.1569 43.9213 27.8011 44.7196 27.8011H57.8848C58.6972 27.8011 59.3414 27.1429 59.3414 26.3445V17.563C59.3414 16.7507 58.6832 16.1064 57.8848 16.1064ZM56.4143 24.8459H46.1762V19.0196H56.4143V24.8459Z" fill="#D13A52"/>
<path d="M57.8848 32.1989H44.7196C43.9073 32.1989 43.263 32.8571 43.263 33.6554V42.4369C43.263 43.2493 43.9213 43.8935 44.7196 43.8935H57.8848C58.6972 43.8935 59.3414 43.2353 59.3414 42.4369V33.6554C59.3414 32.8431 58.6832 32.1989 57.8848 32.1989ZM56.4143 40.9383H46.1762V35.112H56.4143V40.9383Z" fill="#D13A52"/>
<path d="M57.8848 48.3053H44.7196C43.9073 48.3053 43.263 48.9636 43.263 49.7619V58.5434C43.263 59.3557 43.9213 60 44.7196 60H57.8848C58.6972 60 59.3414 59.3417 59.3414 58.5434V49.7619C59.3414 48.9496 58.6832 48.3053 57.8848 48.3053ZM56.4143 57.0448H46.1762V51.2185H56.4143V57.0448Z" fill="#D13A52"/>
<path d="M36.6661 16.1064H2.26835C1.45603 16.1064 0.811768 16.7647 0.811768 17.563V42.437C0.811768 43.2493 1.47003 43.8936 2.26835 43.8936H36.6521C37.4644 43.8936 38.1087 43.2353 38.1087 42.437V17.563H38.1227C38.1227 16.7507 37.4644 16.1064 36.6661 16.1064ZM35.1955 40.9384H3.72493V19.0196H35.1955V40.9384Z" fill="#D13A52"/>
<path d="M24.3563 49.7759H2.1154C1.30307 49.7759 0.658813 50.4341 0.658813 51.2325C0.658813 52.0308 1.31708 52.689 2.1154 52.689H24.3563C25.1686 52.689 25.8129 52.0308 25.8129 51.2325C25.8129 50.4341 25.1546 49.7759 24.3563 49.7759Z" fill="#D13A52"/>
<path d="M36.065 57.0729H2.1154C1.30307 57.0729 0.658813 57.7311 0.658813 58.5295C0.658813 59.3278 1.31708 59.986 2.1154 59.986H36.065C36.8773 59.986 37.5216 59.3278 37.5216 58.5295C37.5216 57.7311 36.8773 57.0729 36.065 57.0729Z" fill="#D13A52"/>
</svg>
