<svg width="60" height="60" viewBox="0 0 60 60" fill="none" xmlns="http://www.w3.org/2000/svg">
<g clip-path="url(#clip0)">
<path d="M55.9936 9.98747C53.5811 10.2202 51.7773 12.3064 51.8953 14.7272L52.0763 22.1493C50.0919 22.3466 48.3549 23.5671 47.4965 25.367L44.784 31.062C44.3625 31.9451 43.7471 32.7223 42.9846 33.3352L42.4208 33.7873C39.5539 36.0753 37.9561 39.5979 38.1243 43.2618L37.016 42.7345C36.5138 42.4949 35.9122 42.7084 35.6731 43.2106L32.6994 49.4547C32.4603 49.9574 32.6733 50.5585 33.1756 50.7976L46.8796 57.324C47.1207 57.4391 47.3976 57.4538 47.6495 57.3643C47.9014 57.2748 48.1075 57.0893 48.2221 56.8478L51.1963 50.6028C51.4354 50.1005 51.2224 49.4994 50.7201 49.2603L50.1352 48.9819L49.9891 47.0285C49.9306 46.2655 50.1711 45.5094 50.6596 44.9201L57.7561 36.3325C57.7704 36.3153 57.7842 36.2976 57.7974 36.2794C59.2604 34.2369 60.0318 31.7803 59.9988 29.2685C59.9978 29.2208 59.9934 29.1731 59.986 29.1258L57.0866 10.8326C57.003 10.3062 56.5238 9.93582 55.9936 9.98747ZM46.8364 55.0715L34.9519 49.4114L37.0593 44.986L48.9438 50.6461L46.8364 55.0715ZM56.181 35.0757L49.1066 43.6366C48.2856 44.6264 47.8817 45.8966 47.9796 47.1785L48.0401 47.9838L40.2505 44.2742C39.697 40.9006 41.009 37.491 43.6811 35.359L44.2449 34.9069C45.2445 34.1036 46.0507 33.0853 46.6037 31.9283L49.3157 26.2333C50.025 24.7497 51.6312 23.9144 53.2535 24.1859L49.2891 32.5108C49.0535 33.0125 49.267 33.6102 49.7677 33.8488C50.268 34.0869 50.8672 33.8764 51.1082 33.3771L55.5661 24.0162C55.8051 23.5135 55.5921 22.9123 55.0894 22.6732C54.7701 22.5217 54.4376 22.4002 54.0957 22.3097L53.9093 14.6657C53.9093 14.6568 53.9093 14.648 53.9083 14.6396C53.8566 13.6479 54.3909 12.7181 55.2729 12.2626L57.9849 29.3683C57.9967 31.4133 57.366 33.4095 56.181 35.0757Z" fill="#D13A52"/>
<path d="M2.2435 36.3325L9.34002 44.9201C9.8285 45.5094 10.0691 46.2655 10.0105 47.0285L9.86442 48.9819L9.27952 49.2603C8.77726 49.4994 8.56426 50.1005 8.80333 50.6028L11.7775 56.8478C11.8921 57.0893 12.0982 57.2748 12.3501 57.3643C12.602 57.4538 12.8789 57.4391 13.1205 57.324L26.824 50.7976C27.3263 50.5585 27.5393 49.9574 27.3002 49.4547L24.326 43.2101C24.087 42.7079 23.4858 42.4944 22.9836 42.734L21.8753 43.2613C22.043 39.5974 20.4457 36.0748 17.5788 33.7868L17.015 33.3347C16.2521 32.7218 15.6372 31.9451 15.2151 31.062L12.5026 25.367C11.6442 23.5671 9.90721 22.3466 7.92279 22.1493L8.10431 14.7272C8.22237 12.3069 6.41848 10.2202 4.00607 9.98747C3.47578 9.93582 2.99664 10.3062 2.91301 10.8326L0.0136056 29.1258C0.00573482 29.1731 0.00179942 29.2208 0.000815565 29.2685C-0.0321434 31.7803 0.739196 34.2369 2.20218 36.2794C2.21546 36.2976 2.22924 36.3153 2.2435 36.3325ZM25.0477 49.4118L13.1633 55.0715L11.0559 50.6461L22.9403 44.986L25.0477 49.4118ZM4.72674 12.2621C5.60877 12.7177 6.143 13.6479 6.09135 14.6391C6.09135 14.648 6.09085 14.6568 6.09036 14.6657L5.90392 22.3097C5.56203 22.3997 5.229 22.5212 4.90974 22.6732C4.40749 22.9123 4.19399 23.5139 4.43356 24.0162L8.89139 33.3775C9.13243 33.8768 9.7316 34.0874 10.2319 33.8488C10.7322 33.6107 10.9462 33.013 10.7105 32.5113L6.7461 24.1859C8.36847 23.9139 9.9751 24.7492 10.684 26.2333L13.3964 31.9283C13.9494 33.0853 14.7551 34.1036 15.7547 34.9069L16.3185 35.359C18.9906 37.491 20.3026 40.9006 19.7492 44.2742L11.9595 47.9838L12.02 47.1785C12.1179 45.8966 11.7141 44.6264 10.8935 43.6366L3.81865 35.0757C2.63409 33.4095 2.00295 31.4133 2.01525 29.3683L4.72674 12.2621Z" fill="#D13A52"/>
<path d="M42.0142 24.5347C42.4318 24.4014 42.7161 24.0143 42.7186 23.5755V7.60756C42.7161 7.16926 42.4318 6.78211 42.0142 6.6488L30.3118 2.87524C30.1101 2.8103 29.8931 2.8103 29.6914 2.87524L17.9856 6.64831C17.5675 6.78162 17.2831 7.16877 17.2802 7.60756V23.5755C17.2826 24.0143 17.567 24.4009 17.9846 24.5347L29.687 28.3078C29.7874 28.3398 29.8926 28.356 29.9979 28.356C30.1042 28.356 30.2099 28.3398 30.3108 28.3078L42.0142 24.5347ZM31.0068 25.9657V12.1131L40.7037 8.98987V22.8425L31.0068 25.9657ZM29.9994 4.89263L38.4167 7.60756L29.9994 10.3215L21.5821 7.60756L29.9994 4.89263ZM19.2951 8.99037L28.9919 12.1136V25.9662L19.2951 22.843V8.99037Z" fill="#D13A52"/>
</g>
<defs>
<clipPath id="clip0">
<rect width="60" height="60" fill="white"/>
</clipPath>
</defs>
</svg>
