<svg width="60" height="60" viewBox="0 0 60 60" fill="none" xmlns="http://www.w3.org/2000/svg">
<g clip-path="url(#clip0)">
<path d="M13.5937 36.5625C12.9468 36.5625 12.4218 37.0875 12.4218 37.7344C12.4218 38.3813 12.9468 38.9063 13.5937 38.9063C14.2405 38.9063 14.7655 38.3813 14.7655 37.7344C14.7655 37.0875 14.2405 36.5625 13.5937 36.5625Z" fill="#D13A52"/>
<path d="M13.5937 41.25C12.9465 41.25 12.4218 41.7748 12.4218 42.4219V51.7969C12.4218 52.444 12.9465 52.9688 13.5937 52.9688C14.2408 52.9688 14.7655 52.444 14.7655 51.7969V42.4219C14.7655 41.7748 14.2408 41.25 13.5937 41.25Z" fill="#D13A52"/>
<path d="M40.5468 0C39.8997 0 39.3749 0.524766 39.3749 1.17188V6.5625C39.3749 7.20961 39.8997 7.73438 40.5468 7.73438C41.1939 7.73438 41.7187 7.20961 41.7187 6.5625V1.17188C41.7187 0.524766 41.1939 0 40.5468 0Z" fill="#D13A52" stroke="white" stroke-width="0.6"/>
<path d="M56.953 34.2188C56.953 31.6341 54.8502 29.5312 52.2655 29.5312H43.5173C44.8716 26.0621 45.4198 21.9789 45.3141 18.3441C45.2939 17.6504 45.2673 17.2493 45.2314 16.9968C45.1708 14.4647 43.0916 12.4219 40.5468 12.4219C37.9621 12.4219 35.8593 14.5247 35.8593 17.1094V18.2812C35.8593 25.6929 26.342 29.8571 19.1596 31.6429C18.6165 30.4014 17.3769 29.5312 15.9374 29.5312H4.21866C3.57155 29.5312 3.04678 30.056 3.04678 30.7031V58.8281C3.04678 59.4752 3.57155 60 4.21866 60H15.9374C17.3673 60 18.5998 59.1414 19.1485 57.913C19.7432 58.0656 20.2953 58.2097 20.8049 58.3429C24.8965 59.4115 27.1504 60 32.6319 60H45.2343C47.819 60 49.9218 57.8972 49.9218 55.3125C49.9218 54.3488 49.6292 53.4523 49.1284 52.7065C50.9387 52.0733 52.2655 50.3436 52.2655 48.2812C52.2655 47.321 51.9801 46.4216 51.4808 45.6724C53.2832 45.0382 54.6093 43.3125 54.6093 41.25C54.6093 40.2862 54.3167 39.3898 53.8159 38.644C55.6262 38.0108 56.953 36.2811 56.953 34.2188ZM17.1093 56.4844C17.1093 57.1305 16.5836 57.6562 15.9374 57.6562H5.39053V31.875H15.9374C16.5836 31.875 17.1093 32.4007 17.1093 33.0469V56.4844ZM52.2655 36.5625C49.752 36.5625 49.1528 36.5625 46.4062 36.5625C45.759 36.5625 45.2343 37.0873 45.2343 37.7344C45.2343 38.3815 45.759 38.9062 46.4062 38.9062H49.9218C51.2141 38.9062 52.2655 39.9577 52.2655 41.25C52.2655 42.5445 51.2162 43.5938 49.9218 43.5938H44.0624C43.4153 43.5938 42.8905 44.1185 42.8905 44.7656C42.8905 45.4127 43.4153 45.9375 44.0624 45.9375H47.578C48.855 45.9375 49.9218 46.9576 49.9218 48.2812C49.9218 49.5757 48.8725 50.625 47.578 50.625C45.0645 50.625 44.4653 50.625 41.7187 50.625C41.0715 50.625 40.5468 51.1498 40.5468 51.7969C40.5468 52.444 41.0715 52.9688 41.7187 52.9688H45.2343C46.5266 52.9688 47.578 54.0202 47.578 55.3125C47.578 56.6048 46.5266 57.6562 45.2343 57.6562H32.6319C27.4514 57.6562 25.4281 57.1278 21.3972 56.0752C20.8067 55.9209 20.159 55.7518 19.453 55.5718V33.9873C27.9337 31.9672 38.203 27.0364 38.203 18.2812V17.1094C38.203 15.817 39.2544 14.7656 40.5468 14.7656C41.8368 14.7656 42.8881 15.8154 42.8905 17.1057V17.1094C42.8905 17.6187 43.5262 23.8691 40.9773 29.5312H37.0312C36.384 29.5312 35.8593 30.056 35.8593 30.7031C35.8593 31.3502 36.384 31.875 37.0312 31.875C37.8495 31.875 50.9298 31.875 52.2655 31.875C53.5579 31.875 54.6093 32.9264 54.6093 34.2188C54.6093 35.5132 53.56 36.5625 52.2655 36.5625Z" fill="#D13A52" stroke="white" stroke-width="0.6"/>
<path d="M31.1718 14.7656H26.4843C25.8371 14.7656 25.3124 15.2904 25.3124 15.9375C25.3124 16.5846 25.8371 17.1094 26.4843 17.1094H31.1718C31.8189 17.1094 32.3436 16.5846 32.3436 15.9375C32.3436 15.2904 31.8189 14.7656 31.1718 14.7656Z" fill="#D13A52" stroke="white" stroke-width="0.6"/>
<path d="M54.6093 14.7656H49.9218C49.2747 14.7656 48.7499 15.2904 48.7499 15.9375C48.7499 16.5846 49.2747 17.1094 49.9218 17.1094H54.6093C55.2564 17.1094 55.7812 16.5846 55.7812 15.9375C55.7812 15.2904 55.2564 14.7656 54.6093 14.7656Z" fill="#D13A52" stroke="white" stroke-width="0.6"/>
<path d="M51.3186 5.16563C50.8609 4.70813 50.1191 4.70813 49.6612 5.16563L46.3473 8.47958C45.8897 8.9372 45.8897 9.67923 46.3473 10.137C46.8052 10.5946 47.5468 10.5945 48.0047 10.137L51.3186 6.82302C51.7762 6.3654 51.7762 5.62337 51.3186 5.16563Z" fill="#D13A52" stroke="white" stroke-width="0.6"/>
<path d="M34.7466 8.47958L31.4327 5.16563C30.9749 4.70813 30.2331 4.70813 29.7753 5.16563C29.3177 5.62325 29.3177 6.36528 29.7753 6.82302L33.0892 10.137C33.5472 10.5946 34.2889 10.5945 34.7466 10.137C35.2042 9.67935 35.2042 8.93731 34.7466 8.47958Z" fill="#D13A52" stroke="white" stroke-width="0.6"/>
</g>
<defs>
<clipPath id="clip0">
<rect width="60" height="60" fill="white"/>
</clipPath>
</defs>
</svg>
