<svg width="82" height="82" viewBox="0 0 82 82" fill="none" xmlns="http://www.w3.org/2000/svg">
<path d="M51.397 53.0841C51.545 52.8432 51.693 52.6068 51.841 52.3615C58.4965 41.3427 61.8456 31.7039 61.7976 23.7159C61.768 18.2202 59.5644 12.9596 55.6682 9.08364C51.772 5.20767 46.5 3.03145 41.0042 3.03052C35.5084 3.02959 30.2356 5.20402 26.3381 9.07867C22.4406 12.9533 20.2352 18.2132 20.2037 23.7089C20.155 31.7039 23.5049 41.344 30.1603 52.3615C30.3083 52.6068 30.4563 52.8432 30.6043 53.0841C16.5925 54.8157 7.30347 59.8235 7.30347 65.7691C7.30347 73.2337 22.1019 79.0807 41.0003 79.0807C59.8988 79.0807 74.6972 73.2337 74.6972 65.7691C74.6972 59.8235 65.4082 54.8157 51.397 53.0841ZM22.4459 23.7159C22.432 21.2701 22.9018 18.8457 23.8283 16.5821C24.7547 14.3185 26.1196 12.2604 27.8443 10.5261C29.569 8.79192 31.6196 7.4158 33.8781 6.47692C36.1365 5.53804 38.5584 5.05495 41.0042 5.05541C43.4501 5.05588 45.8717 5.53989 48.1298 6.47963C50.3879 7.41936 52.438 8.79626 54.1621 10.5311C55.8861 12.266 57.2502 14.3246 58.1758 16.5886C59.1014 18.8525 59.5702 21.2772 59.5554 23.723C59.6515 39.6476 44.7634 59.2885 41.0003 63.9984C37.2373 59.2885 22.3485 39.647 22.4459 23.7159ZM41.0003 76.8385C22.1845 76.8385 9.54565 71.1145 9.54565 65.7691C9.54565 61.0285 18.9174 56.6178 31.9252 55.1873C34.441 59.1154 37.1862 62.8918 40.1464 66.4969C40.2515 66.6208 40.3824 66.7203 40.5298 66.7886C40.6773 66.8569 40.8378 66.8923 41.0003 66.8923C41.1628 66.8923 41.3234 66.8569 41.4709 66.7886C41.6183 66.7203 41.7492 66.6208 41.8543 66.4969C44.8147 62.8918 47.5601 59.1154 50.0761 55.1873C63.0808 56.6178 72.4557 61.0259 72.4557 65.7691C72.455 71.1145 59.8161 76.8385 41.0003 76.8385Z" fill="#D13A52"/>
<path d="M31.8343 70.3453C26.8592 69.7085 22.8655 68.5874 20.5926 67.1902C20.4671 67.11 20.327 67.0556 20.1803 67.0302C20.0336 67.0047 19.8833 67.0088 19.7382 67.042C19.5931 67.0753 19.4561 67.1371 19.3351 67.2239C19.2142 67.3107 19.1117 67.4207 19.0337 67.5475C18.9558 67.6744 18.9038 67.8154 18.881 67.9625C18.8581 68.1097 18.8647 68.2598 18.9005 68.4044C18.9363 68.5489 19.0006 68.6848 19.0895 68.8042C19.1784 68.9236 19.2902 69.0241 19.4183 69.0999C21.9571 70.6605 26.266 71.893 31.5498 72.5689C31.5974 72.575 31.6454 72.578 31.6933 72.5778C31.9775 72.5765 32.2505 72.4672 32.4572 72.2722C32.6639 72.0772 32.7889 71.811 32.8068 71.5274C32.8247 71.2438 32.7342 70.964 32.5537 70.7445C32.3731 70.5251 32.116 70.3824 31.8343 70.3453Z" fill="#D13A52"/>
<path d="M42.8835 70.8806C41.321 70.9165 39.6938 70.9082 38.1057 70.8499C37.9585 70.8445 37.8117 70.8681 37.6736 70.9194C37.5355 70.9707 37.4088 71.0488 37.3009 71.149C37.193 71.2493 37.1058 71.3698 37.0445 71.5038C36.9831 71.6377 36.9488 71.7824 36.9433 71.9297C36.9379 72.0769 36.9615 72.2237 37.0129 72.3618C37.0642 72.4999 37.1422 72.6265 37.2425 72.7345C37.3427 72.8424 37.4633 72.9296 37.5972 72.9909C37.7312 73.0523 37.8759 73.0866 38.0231 73.0921C39.0084 73.1279 40.009 73.1465 41.0007 73.1465C41.6529 73.1465 42.298 73.1388 42.936 73.1235C43.2333 73.1166 43.5156 72.9919 43.7209 72.7768C43.9263 72.5618 44.0377 72.274 44.0309 71.9767C44.0293 71.8289 43.9982 71.6828 43.9394 71.5472C43.8805 71.4115 43.7951 71.289 43.6882 71.1869C43.5813 71.0847 43.455 71.005 43.3168 70.9524C43.1786 70.8998 43.0313 70.8754 42.8835 70.8806Z" fill="#D13A52"/>
<path d="M50.4685 23.7159C50.4683 21.8435 49.9128 20.0132 48.8724 18.4565C47.8319 16.8998 46.3532 15.6865 44.6233 14.9702C42.8933 14.2539 40.9898 14.0666 39.1534 14.4321C37.317 14.7976 35.6303 15.6994 34.3064 17.0235C32.9826 18.3477 32.0811 20.0346 31.716 21.8711C31.3509 23.7075 31.5385 25.611 32.2552 27.3408C32.9719 29.0706 34.1854 30.5491 35.7423 31.5892C37.2992 32.6293 39.1296 33.1844 41.002 33.1843C43.5121 33.1813 45.9185 32.1826 47.6932 30.4076C49.4679 28.6325 50.466 26.2259 50.4685 23.7159ZM33.7771 23.7159C33.7773 22.287 34.2013 20.8902 34.9953 19.7022C35.7894 18.5143 36.9178 17.5884 38.238 17.0418C39.5583 16.4951 41.0109 16.3523 42.4123 16.6312C43.8138 16.9101 45.101 17.5983 46.1113 18.6088C47.1216 19.6193 47.8096 20.9066 48.0883 22.3081C48.3669 23.7096 48.2238 25.1622 47.6769 26.4823C47.13 27.8024 46.204 28.9307 45.0159 29.7246C43.8278 30.5184 42.4309 30.9421 41.002 30.9421C39.0863 30.9401 37.2496 30.1781 35.895 28.8233C34.5405 27.4685 33.7788 25.6316 33.7771 23.7159Z" fill="#D13A52"/>
</svg>
