<svg width="82" height="82" viewBox="0 0 82 82" fill="none" xmlns="http://www.w3.org/2000/svg">
<path d="M71.9211 62.1407C72.5845 62.1407 73.1223 61.6029 73.1223 60.9395V32.1114C73.1223 30.6777 72.5635 29.2111 71.5489 27.9819L62.6406 17.1884C62.1739 16.6229 61.6373 16.1462 61.0547 15.7667C61.0904 15.3996 61.1107 15.0288 61.1107 14.6545V1.20142C61.1107 0.538049 60.5729 0.000244141 59.9096 0.000244141C59.2462 0.000244141 58.7084 0.538049 58.7084 1.20142C58.7084 1.20142 58.706 14.7691 58.705 14.8264C58.3633 14.7658 58.0164 14.7346 57.6674 14.7346H42.1322C41.0385 14.7346 39.9664 15.0415 39.0066 15.6054C38.9651 15.6203 38.924 15.6369 38.8836 15.6566L27.1744 21.3601C25.8772 22.0108 24.8398 23.1023 24.2532 24.4334C24.2468 24.4479 24.2407 24.4625 24.2349 24.4772L19.3937 36.7567C19.1505 37.374 19.4535 38.0715 20.0707 38.3149C20.2153 38.3719 20.3643 38.3988 20.511 38.3988C20.9898 38.3988 21.4424 38.1104 21.6287 37.6379L26.4605 25.3821C26.8239 24.5703 27.4592 23.9052 28.239 23.5137L34.4255 20.5004L28.2505 27.9821C27.3259 29.1022 26.8373 30.5303 26.8373 32.1117V73.5922C26.8373 74.0752 26.8798 74.5482 26.9568 75.0091L14.5796 69.5247C11.7836 68.2859 10.5164 64.9952 11.7554 62.1892C11.7607 62.1771 11.7658 62.1647 11.7709 62.1526L19.5998 42.6961C19.8475 42.0807 19.5494 41.3811 18.9339 41.1333C18.3181 40.8857 17.6189 41.1839 17.3711 41.7993L9.54908 61.2376C7.79025 65.2495 9.60706 69.9488 13.6063 71.7208L28.1203 78.152C28.1381 78.1599 28.1562 78.1656 28.1741 78.1725C29.6473 80.4743 32.1941 82.0001 35.0854 82.0001H64.7143C69.272 82.0001 73.1225 78.1496 73.1225 73.5919V66.545C73.1225 65.8816 72.5847 65.3438 71.9213 65.3438C71.2579 65.3438 70.7201 65.8816 70.7201 66.545V73.5919C70.7201 76.8474 67.9698 79.5977 64.7143 79.5977H35.0854C31.8621 79.5977 29.2397 76.9036 29.2397 73.5919V32.1114C29.2397 31.0803 29.5302 30.2054 30.1034 29.5111L39.0117 18.7175C39.8409 17.713 40.9783 17.1368 42.1322 17.1368H57.6674C57.8937 17.1368 58.1192 17.1597 58.342 17.2029C57.59 19.7672 55.7274 21.9069 53.2122 22.9791C52.5544 21.879 51.3519 21.1407 49.9797 21.1407C47.9044 21.1407 46.2161 22.8291 46.2161 24.9044C46.2161 26.9797 47.9044 28.6681 49.9797 28.6681C51.8989 28.6681 53.486 27.2238 53.7143 25.3651C56.9492 24.1416 59.3955 21.5489 60.4853 18.3844C60.5899 18.4896 60.6911 18.6003 60.7879 18.7175L69.6962 29.5113C70.3564 30.3111 70.7201 31.2346 70.7201 32.1116V60.9397C70.72 61.6029 71.2578 62.1407 71.9211 62.1407ZM49.9797 26.2657C49.2291 26.2657 48.6184 25.655 48.6184 24.9044C48.6184 24.1537 49.2291 23.5431 49.9797 23.5431C50.7304 23.5431 51.3411 24.1537 51.3411 24.9044C51.3411 25.655 50.7304 26.2657 49.9797 26.2657Z" fill="#D13A52"/>
<path d="M39.5694 63.9023C39.8768 63.9023 40.1843 63.7851 40.4187 63.5505L60.9187 43.0504C61.3878 42.5813 61.3878 41.8208 60.9187 41.3518C60.4496 40.8827 59.689 40.8827 59.2201 41.3518L38.7201 61.8518C37.9542 62.5656 38.5419 63.9387 39.5694 63.9023Z" fill="#D13A52"/>
<path d="M42.1322 51.25C45.0022 51.25 47.3372 48.9149 47.3372 46.0449C47.3372 43.1749 45.0022 40.8398 42.1322 40.8398H41.972C39.102 40.8398 36.7669 43.1749 36.7669 46.0449C36.7669 48.9149 39.102 51.25 41.972 51.25H42.1322ZM39.1693 46.0449C39.1693 44.4996 40.4267 43.2422 41.972 43.2422H42.1322C43.6775 43.2422 44.9349 44.4996 44.9349 46.0449C44.9349 47.5903 43.6775 48.8477 42.1322 48.8477H41.972C40.4267 48.8477 39.1693 47.5903 39.1693 46.0449Z" fill="#D13A52"/>
<path d="M57.6673 63.9023H57.8275C60.6975 63.9023 63.0325 61.5673 63.0325 58.6973C63.0325 55.8273 60.6975 53.4922 57.8275 53.4922H57.6673C54.7973 53.4922 52.4622 55.8273 52.4622 58.6973C52.4622 61.5673 54.7973 63.9023 57.6673 63.9023ZM57.6673 55.8945H57.8275C59.3728 55.8945 60.6302 57.1519 60.6302 58.6973C60.6302 60.2426 59.3728 61.5 57.8275 61.5H57.6673C56.1219 61.5 54.8646 60.2426 54.8646 58.6973C54.8646 57.1519 56.1219 55.8945 57.6673 55.8945Z" fill="#D13A52"/>
</svg>
