<svg width="60" height="60" viewBox="0 0 60 60" fill="none" xmlns="http://www.w3.org/2000/svg">
<path d="M34.6345 30.009L34.6345 30.009C34.9381 29.915 35.2523 29.9845 35.4933 30.1621C35.7343 30.3397 35.8938 30.6195 35.8938 30.9374V30.9377V30.9382V30.9391V30.9402V30.9416V30.9433V30.9452V30.9475V30.95V30.9528V30.9559V30.9592V30.9629V30.9668V30.971V30.9754V30.9801V30.9851V30.9904V30.9959V31.0017V31.0078V31.0141V31.0207V31.0275V31.0346V31.042V31.0496V31.0575V31.0657V31.0741V31.0827V31.0916V31.1008V31.1102V31.1198V31.1297V31.1399V31.1503V31.1609V31.1718V31.1829V31.1943V31.2059V31.2177V31.2298V31.2421V31.2547V31.2675V31.2805V31.2938V31.3072V31.321V31.3349V31.3491V31.3635V31.3781V31.393V31.408V31.4233V31.4388V31.4546V31.4705V31.4867V31.5031V31.5197V31.5365V31.5536V31.5708V31.5883V31.6059V31.6238V31.6419V31.6602V31.6787V31.6974V31.7163V31.7354V31.7547V31.7742V31.7939V31.8138V31.8339V31.8542V31.8747V31.8953V31.9162V31.9373V31.9585V31.98V32.0016V32.0234V32.0454V32.0676V32.0899V32.1125V32.1352V32.1581V32.1812V32.2044V32.2279V32.2515V32.2753V32.2992V32.3234V32.3477V32.3721V32.3968V32.4216V32.4465V32.4717V32.497V32.5224V32.548V32.5738V32.5997V32.6258V32.6521V32.6785V32.7051V32.7318V32.7586V32.7857V32.8128V32.8402V32.8676V32.8952V32.923V32.9509V32.9789V33.0071V33.0355V33.0639V33.0925V33.1213V33.1502V33.1792V33.2083V33.2376V33.267V33.2966V33.3262V33.356V33.386V33.416V33.4462V33.4765V33.5069V33.5375V33.5682V33.599V33.6299V33.6609V33.692V33.7233V33.7547V33.7861V33.8177V33.8495V33.8813V33.9132V33.9452V33.9774V34.0096V34.0419V34.0744V34.1069V34.1396V34.1723V34.2052V34.2381V34.2712V34.3043V34.3375V34.3708V34.4043V34.4378V34.4713V34.505V34.5388V34.5726V34.6066V34.6406V34.6747V34.7089V34.7431V34.7775V34.8119V34.8464V34.8809V34.9156V34.9503V34.9851V35.02V35.0549V35.0899V35.1249V35.1601V35.1953V35.2305V35.2659V35.3012V35.3367V35.3722V35.4078V35.4434V35.4791V35.5148V35.5506V35.5864V35.6223V35.6583V35.6943V35.7303V35.7664V35.8025V35.8387V35.8749V35.9112V35.9475V35.9838V36.0202V36.0566V36.0931V36.1296V36.1661V36.2027V36.2393V36.2759V36.3126V36.3493V36.386V36.4227V36.4595V36.4963V36.5331V36.57V36.6068V36.6437V36.6806V36.7175V36.7545V36.7914V36.8284V36.8654V36.9024V36.9394V36.9764V37.0134V37.0504V37.0875V37.1245V37.1615V37.1986V37.2356V37.2727V37.3097V37.3468V37.3838V37.4209V37.4579V37.495V37.532V37.569V37.606V37.643V37.68V37.717V37.7539V37.7909V37.8278V37.8647V37.9016V37.9385V37.9753V38.0122V38.049V38.0858V38.1225V38.1593V38.196V38.2326V38.2693V38.3059V38.3425V38.379V38.4156V38.452V38.4885V38.5249V38.5613V38.5976V38.6339V38.6701V38.7064V38.7425V38.7786V38.8147V38.8507V38.8867V38.9226V38.9585V38.9943V39.0301V39.0658V39.1014V39.1371V39.1726V39.2081V39.2435V39.2789V39.3142V39.3494V39.3846V39.4197V39.4547V39.4897V39.5246V39.5594V39.5942V39.6289V39.6635V39.698V39.7325V39.7669V39.8012V39.8354V39.8696V39.9036V39.9376V39.9715V40.0053V40.0391V40.0727V40.1063V40.1397V40.1731V40.2064V40.2396V40.2727V40.3057V40.3386V40.3714V40.4041V40.4367V40.4692V40.5016V40.5339V40.5661V40.5982V40.6302V40.6621V40.6939V40.7255V40.7571V40.7885V40.8199V40.8511V40.8822V40.9132V40.944V40.9748V41.0054V41.0359V41.0663V41.0965V41.1267V41.1567V41.1866V41.2163V41.2459V41.2754V41.3048V41.334V41.3631V41.3921V41.4209V41.4496V41.4782V41.5066V41.5349V41.563V41.591V41.6188V41.6465V41.6741V41.7015V41.7288V41.7559V41.7828V41.8096V41.8363V41.8628V41.8891V41.9153V41.9414V41.9673V41.993V42.0185V42.0439V42.0692V42.0942V42.1191V42.1439V42.1684V42.1928V42.2171V42.2411V42.265V42.2887V42.3123V42.3356V42.3588V42.3819V42.4047V42.4273V42.4498V42.4721V42.4942V42.5161V42.5379V42.5594V42.5808V42.602V42.623V42.6438V42.6644V42.6848V42.705V42.725V42.7448V42.7645V42.7839V42.8031V42.8221V42.841V42.8596V42.878V42.8962V42.9142V42.932V42.9496V42.967V42.9841V43.0011V43.0178V43.0343V43.0507V43.0667V43.0826V43.0983V43.1137V43.1289V43.1439V43.1587V43.1732V43.1875V43.2016V43.2155V43.2291V43.2425V43.2557V43.2686V43.2813V43.2938V43.306V43.318V43.3297V43.3413V43.3525V43.3636V43.3743V43.3849V43.3952V43.4052V43.415V43.4246V43.4339V43.443V43.4518V43.4603V43.4686V43.4767V43.4844V43.492V43.4992V43.5062V43.513V43.5195V43.5257V43.5317V43.5374V43.5428V43.5479V43.5528V43.5574V43.5618V43.5659V43.5697V43.5732V43.5764V43.5794V43.5821V43.5845V43.5867V43.5885V43.5901V43.5914V43.5924V43.5931V43.5936C35.8938 43.5936 35.8938 43.5937 36.0938 43.5937H35.8938C35.8938 44.0198 35.6163 44.3962 35.2093 44.5221L35.2091 44.5222L35.2078 44.5226L35.2023 44.5243L35.1807 44.5309L35.0964 44.5568L34.7765 44.6552L33.6338 45.0063C32.6876 45.2968 31.4247 45.6842 30.1583 46.0716C28.8918 46.459 27.6219 46.8463 26.6615 47.1368C26.1812 47.282 25.7786 47.4029 25.4926 47.4875C25.3495 47.5298 25.2362 47.5628 25.1572 47.5852C25.1175 47.5964 25.0875 47.6047 25.0671 47.61C25.0639 47.6109 25.061 47.6116 25.0585 47.6122C24.539 47.601 24.1063 47.1455 24.1063 46.6406V33.9843C24.1063 33.5583 24.3838 33.1818 24.7907 33.0559L34.6345 30.009ZM33.8091 42.9207L33.95 42.8771V42.7297V32.527V32.2557L33.6909 32.3359L26.1909 34.6574L26.05 34.701V34.8485V45.0512V45.3224L26.3091 45.2422L33.8091 42.9207Z" fill="#D13A52" stroke="white" stroke-width="0.4"/>
<path d="M34.575 21.4981L29.8735 22.9536C29.2678 23.1411 28.9126 23.8134 29.0999 24.4183L34.575 21.4981ZM34.575 21.4981L34.6342 21.6892L34.6346 21.689C35.1334 21.5334 35.6953 21.8293 35.85 22.3296C36.0083 22.8417 35.7204 23.387 35.2096 23.5454L30.5069 25.0008L30.5063 25.001M34.575 21.4981L34.6341 21.6892L34.634 21.6892L34.6333 21.6894L34.6308 21.6902L34.6207 21.6933L34.5815 21.7055L34.4326 21.7516L33.901 21.9161L32.2873 22.4157L30.6716 22.9158L30.1376 23.0812L29.9871 23.1277L29.947 23.1402C29.9374 23.1432 29.9332 23.1444 29.9335 23.1444L29.9326 23.1446L29.9326 23.1446C29.4322 23.2995 29.1365 23.86 29.2909 24.3591L30.5063 25.001M30.5063 25.001C30.2262 25.0886 29.8853 25.021 29.6538 24.8526L30.5063 25.001ZM29.6537 24.8526C29.482 24.7275 29.3512 24.5535 29.291 24.3592L29.6537 24.8526Z" fill="#D13A52" stroke="white" stroke-width="0.4"/>
<path d="M35.269 50.1036L30.5662 51.5591C29.9513 51.7513 29.284 51.3785 29.1002 50.7855C28.9108 50.1744 29.2635 49.5096 29.8736 49.3207L34.5752 47.8652M35.269 50.1036C35.8854 49.9126 36.2322 49.2553 36.0412 48.6377C35.9645 48.3895 35.8081 48.1837 35.6086 48.0398C35.3185 47.8308 34.937 47.7524 34.5752 47.8652M35.269 50.1036L35.2098 49.9126M35.269 50.1036L35.2098 49.9126L35.2098 49.9126M34.5752 47.8652L34.6343 48.0563L34.6348 48.0561C34.932 47.9634 35.2487 48.027 35.4916 48.2021L35.6085 48.0398L35.4916 48.2021C35.6581 48.3221 35.787 48.4926 35.8501 48.6968L35.8501 48.6968C36.0085 49.2089 35.7207 49.7543 35.2098 49.9126M34.5752 47.8652L34.6343 48.0563L34.6341 48.0563L34.6335 48.0565L34.6309 48.0573L34.6209 48.0604L34.5816 48.0726L34.4327 48.1187L33.9009 48.2833L32.2867 48.783L30.6709 49.2832L30.1372 49.4485L29.987 49.495L29.947 49.5073L29.9366 49.5106L29.9338 49.5114L29.9331 49.5116L29.9329 49.5117L29.9328 49.5117L29.9328 49.5117C29.4276 49.6681 29.1347 50.2212 29.2912 50.7263C29.4433 51.217 30.0006 51.5263 30.5066 51.3682L30.5071 51.368L35.2098 49.9126" fill="#D13A52" stroke="white" stroke-width="0.4"/>
<path d="M34.575 15.6387L29.8734 17.0942C29.2667 17.282 28.9129 17.9542 29.1 18.5602L34.575 15.6387ZM34.575 15.6387L34.6341 15.8297L34.6346 15.8296C35.1357 15.6732 35.6947 15.9681 35.8499 16.4701L35.8499 16.4701C36.0082 16.9823 35.7204 17.5276 35.2096 17.6859C35.2096 17.6859 35.2095 17.6859 35.2095 17.6859L30.5069 19.1414L30.5063 19.1415C30.2162 19.2322 29.8979 19.1682 29.6518 18.9925C29.4827 18.8717 29.3529 18.7015 29.2911 18.5012L29.2911 18.5012C29.1366 18.0005 29.4315 17.4404 29.9326 17.2852L29.9328 17.2851L29.9364 17.284L29.9468 17.2808L29.9868 17.2684L30.1371 17.2219L30.6708 17.0567L32.2866 16.5565L33.9007 16.0568L34.4325 15.8922L34.5814 15.8461L34.6207 15.8339L34.6307 15.8308L34.6333 15.83L34.6339 15.8298L34.6341 15.8298L34.575 15.6387Z" fill="#D13A52" stroke="white" stroke-width="0.4"/>
<path d="M35.4911 10.1173L35.4911 10.1173C35.658 10.2372 35.787 10.4072 35.8501 10.6108L35.8501 10.6108C36.0067 11.1163 35.7148 11.6701 35.2097 11.8264L35.2092 11.8266L35.1563 11.843L35.0066 11.8893L34.4734 12.0544L32.857 12.5546L31.2413 13.0547L30.7089 13.2194L30.5598 13.2656L30.5205 13.2777L30.5104 13.2809L30.5079 13.2816L30.5072 13.2818L30.5071 13.2819L30.5661 13.473L30.507 13.2819L30.5065 13.2821C30.007 13.4382 29.4459 13.143 29.2912 12.6417L29.2912 12.6417C29.1405 12.1533 29.4424 11.5776 29.9327 11.4257L32.2881 10.6966L33.9014 10.1972L34.4327 10.0327L34.5816 9.98658L34.6208 9.97444L34.6309 9.97133L34.6334 9.97054L34.6341 9.97034L34.6341 9.97033C34.6341 9.97032 34.6341 9.97031 34.6342 9.97031C34.9303 9.87895 35.2476 9.94236 35.4911 10.1173Z" fill="#D13A52" stroke="white" stroke-width="0.4"/>
<path d="M4.93103 35.8063L4.93103 35.8063C5.08973 35.2935 5.63394 35.0066 6.14685 35.1653C6.14685 35.1653 6.14685 35.1653 6.14686 35.1653L15.9906 38.2122C16.5033 38.3709 16.7903 38.9152 16.6315 39.4281L16.6315 39.4281C16.5026 39.8448 16.1185 40.1128 15.7036 40.1128C15.6087 40.1128 15.5119 40.0988 15.4158 40.069L15.4158 40.069L5.57207 37.0222L5.51294 37.2132L5.57207 37.0222C5.05932 36.8635 4.77231 36.3191 4.93103 35.8063Z" fill="#D13A52" stroke="white" stroke-width="0.4"/>
<path d="M7.90852 11.3558L7.9085 11.3558C7.39703 11.1932 7.11429 10.6466 7.27709 10.135C7.43989 9.62345 7.98637 9.34074 8.49797 9.50353L8.49798 9.50354L13.6542 11.1442C13.6542 11.1442 13.6542 11.1442 13.6542 11.1442C14.1657 11.3069 14.4483 11.8535 14.2857 12.365C14.1542 12.7782 13.7719 13.0425 13.3598 13.0425C13.2623 13.0425 13.1631 13.0278 13.0648 12.9965C13.0648 12.9965 13.0648 12.9965 13.0648 12.9965L7.90852 11.3558Z" fill="#D13A52" stroke="white" stroke-width="0.4"/>
<path d="M5.84119 16.807L8.08005 17.5C8.19548 17.5358 8.31209 17.5528 8.42693 17.5528C8.92709 17.5528 9.39033 17.23 9.54595 16.7272C9.73732 16.1089 9.39127 15.4527 8.77299 15.2612L8.71384 15.4522C9.22664 15.6111 9.5136 16.1553 9.3549 16.6681L9.3549 16.6681C9.22593 17.0848 8.84192 17.3528 8.42693 17.3528C8.33192 17.3528 8.23527 17.3387 8.13921 17.309L8.1392 17.309L5.90035 16.616M5.84119 16.807L5.90035 16.616M5.84119 16.807L5.90033 16.6159L5.90035 16.616M5.84119 16.807L5.90035 16.616M5.90035 16.616C5.38754 16.4571 5.10057 15.9129 5.25916 15.4002L5.90035 16.616ZM6.47497 14.7592L8.71382 15.4522L5.25916 15.4002C5.41789 14.8874 5.96246 14.6004 6.47493 14.7592L6.47497 14.7592Z" fill="#D13A52" stroke="white" stroke-width="0.4"/>
<path d="M15.9905 17.7044L15.9905 17.7044C16.5033 17.8631 16.7903 18.4074 16.6316 18.9201L16.6315 18.9201C16.5026 19.3369 16.1186 19.6049 15.7035 19.6049C15.6086 19.6049 15.5118 19.5909 15.4159 19.5611L15.4159 19.5611L13.1769 18.8681L13.1769 18.8681C12.6641 18.7094 12.3771 18.1651 12.5358 17.6524L12.5358 17.6523C12.6945 17.1395 13.2388 16.8527 13.7515 17.0113C13.7515 17.0113 13.7515 17.0113 13.7515 17.0113L15.9905 17.7044Z" fill="#D13A52" stroke="white" stroke-width="0.4"/>
<path d="M5.57207 42.8816L5.51294 43.0727L5.57207 42.8816C5.05932 42.7229 4.77231 42.1786 4.93103 41.6658C5.08972 41.1531 5.63391 40.8661 6.14685 41.0247C6.14686 41.0247 6.14688 41.0247 6.14689 41.0247L15.9906 44.0716C16.5033 44.2303 16.7903 44.7746 16.6315 45.2875L16.6315 45.2876C16.5026 45.7043 16.1185 45.9723 15.7036 45.9723C15.6087 45.9723 15.5119 45.9582 15.4158 45.9285L15.4158 45.9285L5.57207 42.8816Z" fill="#D13A52" stroke="white" stroke-width="0.4"/>
<path d="M5.57207 48.7409L5.51294 48.932L5.57207 48.7409C5.05932 48.5822 4.77231 48.0378 4.93103 47.5251C5.08973 47.0123 5.63396 46.7253 6.14685 46.884C6.14685 46.884 6.14685 46.884 6.14686 46.884L15.9906 49.9309C16.5033 50.0896 16.7903 50.6339 16.6315 51.1468L16.6315 51.1468C16.5026 51.5636 16.1185 51.8316 15.7036 51.8316C15.6087 51.8316 15.5119 51.8175 15.4158 51.7878L15.4158 51.7878L5.57207 48.7409Z" fill="#D13A52" stroke="white" stroke-width="0.4"/>
<path d="M57.8563 40.0676C57.8563 39.531 58.293 39.0945 58.8281 39.0945C59.3632 39.0945 59.8 39.531 59.8 40.0676C59.8 40.6026 59.3636 41.0383 58.8281 41.0383C58.2926 41.0383 57.8563 40.6026 57.8563 40.0676Z" fill="#D13A52" stroke="white" stroke-width="0.4"/>
<path d="M39.892 0.242686L39.8919 0.242928L39.9017 0.245364C39.8969 0.24418 42.9824 1.18465 46.6872 2.31391L49.5024 3.17204L56.109 5.18584L58.2862 5.84947L58.8962 6.0354L59.0569 6.08438L59.0981 6.09694L59.1085 6.10012L59.1111 6.10092L59.1116 6.10105C59.5237 6.2277 59.8 6.6004 59.8 7.03136V34.7931C59.8 35.3294 59.3635 35.765 58.8281 35.765C58.2928 35.765 57.8563 35.3294 57.8563 34.7931V7.89972V7.75162L57.7146 7.70842L40.8396 2.56272L40.5812 2.48394V2.75402V52.1005V52.2486L40.7229 52.2918L57.5979 57.4375L57.8563 57.5163V57.2462V45.34C57.8563 44.805 58.2926 44.3693 58.8281 44.3693C59.3636 44.3693 59.8 44.805 59.8 45.34V58.8282C59.8 59.1351 59.6532 59.4268 59.4068 59.6094C59.2368 59.7344 59.038 59.8001 58.8293 59.8001C58.7337 59.8001 58.637 59.7857 58.5434 59.7582C58.5431 59.7581 58.5428 59.758 58.5425 59.7579L39.6684 54.0024L39.6101 53.9846L39.5518 54.0024L20.6809 59.7557L20.6786 59.7562L20.6525 59.7617C20.6302 59.7663 20.5998 59.7723 20.5663 59.7782C20.4942 59.7909 20.4259 59.8001 20.3907 59.8001C20.2949 59.8001 20.1984 59.7857 20.1072 59.7579L20.1066 59.7577L20.0926 59.7534L20.0509 59.7407L19.8892 59.6914L19.2777 59.505L17.0989 58.8407L10.4931 56.8267L3.88955 54.8135L1.71366 54.1501L1.10406 53.9642L0.943461 53.9153L0.902285 53.9027L0.891863 53.8995L0.889242 53.8987L0.888584 53.8985C0.888443 53.8985 0.88837 53.8985 0.836195 54.0696L0.888368 53.8985C0.479422 53.7738 0.2 53.3964 0.2 52.9689V1.17199C0.2 0.86401 0.345967 0.574302 0.593511 0.391002L0.593581 0.390949C0.840913 0.207636 1.16062 0.152574 1.45539 0.242397C1.45539 0.242399 1.4554 0.242401 1.45541 0.242404L20.3323 5.99759L20.3906 6.01537L20.449 5.99759L39.3258 0.242288C39.5124 0.18544 39.7093 0.187162 39.892 0.242686ZM20.6739 59.7579C20.6741 59.7578 20.6742 59.7578 20.6744 59.7577L20.674 59.7578L20.6739 59.7579ZM2.40207 2.56318L2.14375 2.48443V2.75449V52.101V52.2491L2.28542 52.2923L19.1604 57.4372L19.4188 57.5159V57.2459V7.89925V7.75114L19.2771 7.70795L2.40207 2.56318ZM21.5042 7.70795L21.3625 7.75114V7.89925V57.2459V57.5159L21.6208 57.4372L38.4958 52.2924L38.6375 52.2492V52.1011V2.75449V2.48443L38.3792 2.56318L21.5042 7.70795Z" fill="#D13A52" stroke="white" stroke-width="0.4"/>
<path d="M54.428 39.6184L54.428 39.6184C54.835 39.7444 55.1125 40.1208 55.1125 40.5468V52.0312C55.1125 52.5578 54.6684 53.0031 54.1405 53.0031C54.0442 53.0031 53.9475 52.9888 53.8532 52.9596L44.0095 49.9128L44.0095 49.9128C43.6025 49.7868 43.325 49.4104 43.325 48.9843V37.5C43.325 36.863 43.9729 36.3823 44.5843 36.5715L49.5126 38.097L52.8924 39.1431L54.0057 39.4877L54.3177 39.5843L54.3998 39.6097L54.4209 39.6162L54.4262 39.6179L54.4276 39.6183L54.4279 39.6184C54.428 39.6184 54.428 39.6184 54.4871 39.4274L54.428 39.6184ZM52.9096 50.6329L53.1687 50.7131V50.4418V41.411V41.2635L53.0279 41.2199L45.5279 38.8984L45.2687 38.8182V39.0895V48.1203V48.2678L45.4096 48.3114L52.9096 50.6329Z" fill="#D13A52" stroke="white" stroke-width="0.4"/>
<path d="M53.8533 23.6628L53.8532 23.6628L44.0095 20.616C43.6026 20.49 43.325 20.1136 43.325 19.6875V8.20315C43.325 7.56343 43.9702 7.08466 44.5843 7.27472L49.5108 8.79961L52.8917 9.84606L54.0055 10.1908L54.3176 10.2874L54.3998 10.3129L54.4209 10.3194L54.4262 10.321L54.4276 10.3215L54.4279 10.3216C54.428 10.3216 54.428 10.3216 54.4871 10.1305L54.428 10.3216L54.428 10.3216C54.835 10.4475 55.1125 10.8239 55.1125 11.25V22.7344C55.1125 23.3738 54.4656 23.8525 53.8533 23.6628ZM45.5279 9.60163L45.2687 9.52142V9.79268V18.8235V18.971L45.4096 19.0146L52.9096 21.336L53.1687 21.4163V21.145V12.1142V11.9667L53.0279 11.9231L45.5279 9.60163Z" fill="#D13A52" stroke="white" stroke-width="0.4"/>
<path d="M53.8534 35.8503L53.8533 35.8503L48.9254 34.3249L45.5454 33.2788L44.4319 32.9341L44.12 32.8376L44.0378 32.8121L44.0167 32.8056L44.0114 32.804L44.0101 32.8035L44.0097 32.8034C44.0096 32.8034 44.0096 32.8034 43.9505 32.9945L44.0096 32.8034C43.4968 32.6447 43.2098 32.1003 43.3686 31.5876C43.5273 31.0748 44.0716 30.7878 44.5844 30.9465C44.5844 30.9465 44.5844 30.9465 44.5844 30.9465L54.4281 33.9934C54.9409 34.1521 55.2279 34.6965 55.0692 35.2092C54.9129 35.7141 54.3455 36.0026 53.8534 35.8503Z" fill="#D13A52" stroke="white" stroke-width="0.4"/>
<path d="M44.5843 25.0872L44.5844 25.0872L54.4281 28.1341C54.9409 28.2928 55.2279 28.8371 55.0692 29.3499L55.0692 29.3499C54.9122 29.8571 54.3473 30.1438 53.8533 29.9909L53.8533 29.991L48.9312 28.4674L45.5476 27.4201L44.4325 27.075L44.1201 26.9783L44.0378 26.9528L44.0167 26.9463L44.0114 26.9446L44.0101 26.9442L44.0097 26.9441C44.0096 26.9441 44.0096 26.9441 43.9505 27.1351L44.0096 26.9441C43.4968 26.7854 43.2098 26.241 43.3686 25.7282C43.5273 25.2155 44.0716 24.9284 44.5843 25.0872Z" fill="#D13A52" stroke="white" stroke-width="0.4"/>
<path d="M26.1672 25.5469C26.1672 26.0836 25.7321 26.5187 25.1953 26.5187C24.6586 26.5187 24.2234 26.0836 24.2234 25.5469C24.2234 25.0101 24.6586 24.575 25.1953 24.575C25.7321 24.575 26.1672 25.0101 26.1672 25.5469Z" fill="#D13A52" stroke="white" stroke-width="0.4"/>
<path d="M26.1672 19.8047C26.1672 20.3414 25.7321 20.7766 25.1953 20.7766C24.6586 20.7766 24.2234 20.3414 24.2234 19.8047C24.2234 19.2679 24.6586 18.8328 25.1953 18.8328C25.7321 18.8328 26.1672 19.2679 26.1672 19.8047Z" fill="#D13A52" stroke="white" stroke-width="0.4"/>
<path d="M26.1672 13.9453C26.1672 14.4821 25.7321 14.9172 25.1953 14.9172C24.6586 14.9172 24.2234 14.4821 24.2234 13.9453C24.2234 13.4086 24.6586 12.9734 25.1953 12.9734C25.7321 12.9734 26.1672 13.4086 26.1672 13.9453Z" fill="#D13A52" stroke="white" stroke-width="0.4"/>
<path d="M26.1672 52.0312C26.1672 52.568 25.7321 53.0031 25.1953 53.0031C24.6586 53.0031 24.2234 52.568 24.2234 52.0312C24.2234 51.4945 24.6586 51.0594 25.1953 51.0594C25.7321 51.0594 26.1672 51.4945 26.1672 52.0312Z" fill="#D13A52" stroke="white" stroke-width="0.4"/>
</svg>
