<svg width="43" height="43" viewBox="0 0 43 43" fill="none" xmlns="http://www.w3.org/2000/svg">
<path d="M39.9342 30.6564C38.8848 28.959 36.1155 28.2099 34.5581 27.9143C31.7157 27.375 28.0526 27.416 26.277 28.7235C25.6926 29.1542 25.4015 30.0441 25.3335 31.6092C25.3245 31.8154 25.3205 32.0169 25.3195 32.2076C22.3027 31.0636 19.5179 29.357 17.1411 27.1953L16.0973 26.1763C13.8863 23.859 12.1399 21.144 10.9687 18.2036C11.1645 18.2026 11.3713 18.1987 11.583 18.19C13.1828 18.1237 14.0925 17.8399 14.5327 17.2702C15.8662 15.5445 15.9145 11.9812 15.3708 9.2154C15.0694 7.68162 14.3024 4.95485 12.5534 3.92427C10.8135 2.89894 8.12416 3.14629 7.04861 3.30039C4.82974 3.61795 2.98377 4.38773 2.11046 5.35924C1.34946 6.20597 1.08213 8.62233 1.00258 9.62179C1.00044 9.64807 0.999687 9.67509 1.00012 9.70147C1.13105 17.8426 4.32066 25.6166 9.98116 31.5886C9.98876 31.5965 9.99647 31.6076 10.0043 31.6153L11.5912 33.1712C11.599 33.1788 11.6069 33.1996 11.6151 33.2068C17.7309 38.732 25.6895 41.7893 34.0251 41.9995C34.0295 41.9995 34.034 41.9995 34.0384 41.9995C34.0605 41.9995 34.0825 41.9724 34.1046 41.9708C35.127 41.8932 37.5987 41.6062 38.4643 40.8647C39.4602 40.0115 40.2491 38.2076 40.5748 36.039C40.7326 34.9875 40.9862 32.3583 39.9342 30.6564ZM38.8801 35.7935C38.6241 37.4977 38.0044 39.0264 37.3388 39.5966C37.0405 39.8381 35.4922 40.1482 34.0118 40.2645C26.1172 40.1339 18.5816 37.1835 12.7873 31.9537L11.2242 30.4275C5.86868 24.7718 2.84769 17.4177 2.71387 9.71282C2.83217 8.27112 3.14886 6.76268 3.39521 6.47171C3.98074 5.82039 5.54835 5.2147 7.29614 4.96452C9.12937 4.70204 10.8064 4.85593 11.6723 5.36628C12.5078 5.85866 13.2807 7.45562 13.6893 9.53412C14.2254 12.2619 14.0085 15.1289 13.1864 16.2302C12.8544 16.4591 11.3491 16.5818 9.93716 16.4988C9.78384 16.4609 9.61822 16.4634 9.45709 16.5162C9.31641 16.5623 9.19607 16.641 9.10164 16.7406C8.96556 16.8778 8.87606 17.0609 8.86086 17.2669C8.8478 17.4445 8.89223 17.6129 8.9782 17.7553C10.1623 21.154 12.0566 24.3017 14.5204 26.9774C14.5495 27.0231 14.5836 27.0667 14.6225 27.1075C14.8764 27.3731 15.1358 27.6338 15.4001 27.8889C15.6619 28.1475 15.9291 28.4012 16.202 28.6495C16.2439 28.6875 16.2885 28.7208 16.3352 28.749C19.0749 31.1534 22.298 33.0027 25.7774 34.1582C25.9223 34.2423 26.0936 34.2857 26.2745 34.2724C26.4857 34.2573 26.6732 34.1679 26.813 34.0325C26.8273 34.0193 26.8402 34.0047 26.8537 33.9906C26.8573 33.9865 26.8611 33.9824 26.8648 33.9782C26.9403 33.8949 27.0018 33.7973 27.0397 33.6848C27.093 33.5268 27.0951 33.3647 27.0561 33.2146C26.9719 31.8397 27.0966 30.375 27.3298 30.0515C28.467 29.2419 31.4228 29.0325 34.2335 29.5658C36.3457 29.9666 37.9693 30.719 38.4702 31.5292C38.9913 32.3725 39.1484 34.0065 38.8801 35.7935Z" fill="white" stroke="white" stroke-width="0.5"/>
<path d="M23.9282 2.86765C32.854 2.87739 40.0873 9.97951 40.0973 18.7433C40.0973 19.2591 40.5231 19.6771 41.0484 19.6771C41.5737 19.6771 41.9995 19.2591 41.9995 18.7433C41.9885 8.94839 33.9042 1.01072 23.9282 1C23.4029 1 22.9771 1.41805 22.9771 1.93382C22.9771 2.4496 23.4029 2.86765 23.9282 2.86765Z" fill="white" stroke="white" stroke-width="0.5"/>
<path d="M23.9282 8.47018C29.7036 8.47686 34.3838 13.0721 34.3906 18.7427C34.3906 19.2585 34.8165 19.6765 35.3417 19.6765C35.867 19.6765 36.2928 19.2585 36.2928 18.7427C36.2849 12.041 30.7537 6.6102 23.9282 6.60254C23.4029 6.60254 22.9771 7.02059 22.9771 7.53636C22.9771 8.05214 23.4029 8.47018 23.9282 8.47018Z" fill="white" stroke="white" stroke-width="0.5"/>
<path d="M23.9282 14.0735C26.5533 14.0765 28.6806 16.1652 28.6838 18.7428C28.6838 19.2585 29.1097 19.6766 29.6349 19.6766C30.1601 19.6766 30.586 19.2585 30.586 18.7428C30.5818 15.1342 27.6035 12.2099 23.9282 12.2058C23.4029 12.2058 22.9771 12.6239 22.9771 13.1396C22.9771 13.6554 23.4029 14.0735 23.9282 14.0735Z" fill="white" stroke="white" stroke-width="0.5"/>
</svg>
