<svg width="25" height="25" viewBox="0 0 25 25" fill="none" xmlns="http://www.w3.org/2000/svg">
<path d="M22.8412 17.6369C22.2525 16.6846 20.699 16.2644 19.8253 16.0986C18.2308 15.7961 16.1759 15.8191 15.1798 16.5525C14.852 16.7941 14.6887 17.2934 14.6505 18.1714C14.6455 18.2871 14.6433 18.4 14.6427 18.5071C12.9503 17.8653 11.3881 16.9079 10.0548 15.6952L9.46924 15.1236C8.22889 13.8236 7.2492 12.3006 6.59221 10.651C6.70206 10.6505 6.81803 10.6483 6.93683 10.6434C7.83424 10.6062 8.34457 10.447 8.59153 10.1274C9.33957 9.15932 9.36666 7.16037 9.06168 5.60882C8.89261 4.74839 8.46234 3.21872 7.48121 2.64058C6.50512 2.06539 4.99649 2.20414 4.39313 2.29059C3.1484 2.46874 2.11285 2.90058 1.62294 3.44557C1.19604 3.92057 1.04607 5.27611 1.00145 5.83679C1.00025 5.85154 0.999825 5.86669 1.00006 5.88149C1.07352 10.4485 2.86281 14.8096 6.03822 18.1598C6.04248 18.1642 6.04681 18.1705 6.05119 18.1748L6.94139 19.0476C6.94578 19.0519 6.95022 19.0636 6.95485 19.0676C10.3856 22.1671 14.8502 23.8822 19.5263 24.0002C19.5288 24.0002 19.5313 24.0002 19.5338 24.0002C19.5462 24.0002 19.5585 23.9849 19.5709 23.9841C20.1445 23.9405 21.531 23.7795 22.0166 23.3635C22.5753 22.8849 23.0178 21.8729 23.2005 20.6564C23.2891 20.0665 23.4313 18.5916 22.8412 17.6369ZM22.2499 20.5187C22.1063 21.4747 21.7586 22.3323 21.3852 22.6522C21.2178 22.7876 20.3493 22.9616 19.5188 23.0269C15.0902 22.9536 10.8629 21.2985 7.61238 18.3646L6.73551 17.5084C3.73121 14.3357 2.03651 10.2102 1.96144 5.88786C2.0278 5.07909 2.20546 4.23288 2.34366 4.06965C2.67212 3.70427 3.55151 3.36449 4.53199 3.22414C5.56039 3.0769 6.50116 3.16323 6.98692 3.44952C7.45563 3.72574 7.88919 4.62161 8.11838 5.78761C8.41916 7.31788 8.29748 8.92621 7.83628 9.54398C7.65004 9.67242 6.8056 9.74123 6.01354 9.69471C5.92753 9.67342 5.83462 9.67483 5.74423 9.70444C5.66531 9.73032 5.5978 9.77443 5.54483 9.83034C5.4685 9.90729 5.41828 10.01 5.40976 10.1256C5.40243 10.2252 5.42735 10.3197 5.47558 10.3996C6.13984 12.3062 7.20247 14.072 8.58462 15.573C8.60096 15.5986 8.62006 15.6231 8.64192 15.646C8.78432 15.795 8.92985 15.9412 9.07813 16.0843C9.22498 16.2294 9.37489 16.3717 9.52798 16.511C9.55146 16.5324 9.57651 16.551 9.60269 16.5669C11.1396 17.9157 12.9477 18.9531 14.8995 19.6013C14.9808 19.6485 15.0769 19.6728 15.1784 19.6654C15.2969 19.6569 15.402 19.6067 15.4805 19.5308C15.4885 19.5234 15.4957 19.5152 15.5033 19.5073C15.5053 19.505 15.5074 19.5027 15.5096 19.5003C15.5519 19.4536 15.5864 19.3989 15.6077 19.3357C15.6375 19.2471 15.6387 19.1562 15.6169 19.0719C15.5696 18.3007 15.6396 17.479 15.7704 17.2975C16.4083 16.8434 18.0665 16.7259 19.6432 17.025C20.8281 17.2499 21.7389 17.6719 22.0199 18.1265C22.3123 18.5995 22.4004 19.5162 22.2499 20.5187Z" fill="#D13A52" stroke="#D13A52" stroke-width="0.5"/>
<path d="M13.8619 2.04771C18.8691 2.05317 22.9268 6.0373 22.9324 10.9536C22.9324 11.2429 23.1713 11.4775 23.466 11.4775C23.7607 11.4775 23.9995 11.2429 23.9995 10.9536C23.9933 5.45887 19.4582 1.00602 13.8619 1C13.5672 1 13.3284 1.23452 13.3284 1.52385C13.3284 1.81319 13.5672 2.04771 13.8619 2.04771Z" fill="#D13A52" stroke="#D13A52" stroke-width="0.5"/>
<path d="M13.8617 5.19067C17.1016 5.19441 19.7271 7.77258 19.7309 10.9541C19.7309 11.2434 19.9698 11.478 20.2644 11.478C20.5591 11.478 20.798 11.2434 20.798 10.9541C20.7935 7.19407 17.6906 4.14712 13.8617 4.14282C13.567 4.14282 13.3281 4.37737 13.3281 4.66674C13.3281 4.95612 13.567 5.19067 13.8617 5.19067Z" fill="#D13A52" stroke="#D13A52" stroke-width="0.5"/>
<path d="M13.8617 8.33422C15.3343 8.33594 16.5277 9.50781 16.5295 10.9539C16.5295 11.2433 16.7684 11.4779 17.063 11.4779C17.3576 11.4779 17.5966 11.2433 17.5966 10.9539C17.5942 8.92936 15.9234 7.28865 13.8617 7.28638C13.567 7.28638 13.3281 7.52092 13.3281 7.8103C13.3281 8.09967 13.567 8.33422 13.8617 8.33422Z" fill="#D13A52" stroke="#D13A52" stroke-width="0.5"/>
</svg>
